<?xml version="1.0" standalone="no"?>
<!DOCTYPE svg PUBLIC "-//W3C//DTD SVG 20010904//EN"
 "http://www.w3.org/TR/2001/REC-SVG-20010904/DTD/svg10.dtd">
<svg version="1.0" xmlns="http://www.w3.org/2000/svg"
 width="1000.000000pt" height="1125.000000pt" viewBox="0 0 1000.000000 1125.000000"
 preserveAspectRatio="xMidYMid meet">

<g transform="translate(0.000000,1125.000000) scale(0.100000,-0.100000)"
fill="#000000" stroke="none">
<path d="M4662 10641 c-293 -111 -490 -202 -620 -288 -48 -32 -93 -62 -100
-66 -11 -7 -12 7 -7 80 8 103 2 133 -26 133 -34 0 -60 -19 -180 -131 -65 -60
-141 -125 -170 -145 l-53 -35 -102 7 c-116 8 -176 -3 -269 -47 -125 -59 -247
-187 -297 -310 -35 -88 -22 -83 -203 -74 -230 12 -271 10 -322 -17 -72 -39
-303 -248 -637 -578 -345 -342 -342 -337 -402 -514 -20 -55 -52 -126 -71 -156
-39 -59 -231 -254 -461 -469 -211 -197 -315 -327 -404 -506 -121 -242 -170
-434 -262 -1035 -30 -195 -59 -375 -65 -399 -9 -43 -8 -47 83 -230 186 -370
281 -643 333 -949 16 -93 16 -106 2 -130 -13 -24 -21 -27 -67 -27 l-52 0 0
-145 c0 -221 -2 -215 279 -846 258 -582 340 -783 433 -1056 34 -101 47 -128
61 -128 46 0 125 -68 150 -130 8 -19 22 -74 31 -123 58 -308 209 -561 404
-676 121 -72 171 -83 402 -91 252 -9 283 -18 410 -121 128 -103 315 -169 484
-169 l88 0 217 -112 c299 -154 417 -219 537 -294 56 -35 113 -64 127 -64 13 0
36 9 49 20 14 10 28 16 32 13 3 -3 6 -37 6 -75 0 -37 4 -68 9 -68 5 0 85 9
178 20 279 32 408 40 638 41 288 0 448 -18 655 -72 71 -19 79 -19 135 -4 146
38 298 2 505 -119 44 -26 79 -38 121 -43 85 -9 103 13 74 88 -4 12 8 22 52 42
67 29 95 37 257 71 145 31 152 28 240 -76 32 -39 73 -76 90 -83 l31 -13 6 93
c9 153 44 181 213 172 l99 -5 -6 62 c-10 109 2 139 106 246 51 53 133 138 182
190 90 93 196 180 220 180 7 0 47 -37 89 -82 l76 -83 0 45 c0 62 -39 140 -106
212 -30 33 -54 68 -52 77 5 24 178 83 249 84 46 2 63 -3 98 -26 l42 -28 -15
30 c-47 89 20 140 185 141 72 0 92 4 120 23 43 28 79 99 86 170 5 54 10 61
143 222 349 420 574 807 807 1384 29 74 52 135 50 137 -2 2 -40 -26 -86 -62
-95 -77 -176 -167 -261 -294 -74 -109 -108 -132 -160 -106 -18 9 -34 15 -36
14 -1 -2 -16 -48 -34 -103 -17 -55 -34 -102 -36 -104 -3 -3 -2 32 2 77 4 45 4
82 0 82 -4 0 -104 -76 -224 -168 -504 -392 -1005 -755 -1412 -1025 -268 -178
-304 -197 -366 -197 -39 0 -51 5 -77 33 -18 18 -37 41 -43 52 -10 18 -15 15
-77 -37 -36 -31 -76 -59 -87 -63 -34 -11 -60 20 -60 72 l0 44 -87 -3 -88 -3
-25 -49 c-14 -27 -30 -51 -35 -53 -6 -1 -20 15 -33 37 -13 23 -27 38 -31 35
-5 -3 -15 -44 -22 -92 -12 -85 -13 -87 -22 -50 -7 30 -14 37 -33 37 -18 0 -32
-12 -53 -46 l-29 -45 -33 48 c-42 62 -110 145 -115 140 -2 -2 3 -23 11 -47 28
-79 12 -138 -26 -92 l-17 21 -6 -22 c-3 -12 -6 -41 -6 -64 0 -35 -5 -45 -27
-60 -16 -9 -55 -42 -88 -74 -66 -61 -62 -60 -235 -75 -100 -8 -284 -39 -395
-66 -76 -18 -96 -20 -140 -10 -27 6 -120 27 -206 46 -279 63 -597 110 -954
141 -198 17 -278 32 -433 81 -106 34 -325 137 -420 198 l-44 27 45 30 c45 29
77 79 77 117 0 27 -18 38 -26 17 -10 -24 -71 -51 -161 -71 l-82 -17 -178 169
c-98 94 -308 291 -468 439 -498 462 -866 835 -1031 1042 -64 80 -137 226 -234
468 -40 99 -88 215 -108 258 l-35 78 -23 -22 c-51 -48 -110 -13 -138 81 -15
51 -7 97 21 118 21 15 65 16 81 0 6 -6 14 -9 17 -7 3 3 -18 163 -46 355 -34
236 -49 369 -46 410 4 49 17 88 65 190 l61 129 66 605 c71 653 81 725 125 901
142 565 434 1007 1039 1573 436 409 490 453 656 546 33 18 164 95 290 170 611
364 851 476 1206 564 231 57 330 68 674 75 171 4 319 11 330 16 91 38 114 90
115 248 l0 117 -39 -6 c-50 -8 -106 17 -191 86 -56 45 -155 101 -178 100 -4 0
-125 -45 -270 -99z m-3819 -6427 c14 -14 50 -86 82 -160 32 -74 69 -150 82
-169 30 -44 15 -45 -49 -4 -58 37 -77 70 -88 153 -6 37 -23 88 -45 129 -19 37
-35 70 -35 72 0 14 33 1 53 -21z m-106 -93 c18 -58 31 -106 30 -108 -6 -5
-127 155 -127 168 0 19 32 50 49 47 10 -2 27 -40 48 -107z"/>
<path d="M6323 10391 c-29 -13 -49 -33 -68 -65 -15 -25 -28 -46 -30 -46 -1 0
-20 7 -41 16 -55 23 -283 16 -334 -10 -155 -80 -161 -251 -13 -386 145 -133
414 -230 637 -230 54 0 68 -5 175 -66 312 -179 621 -385 1221 -814 562 -402
518 -374 586 -367 36 4 85 20 137 46 117 57 111 59 108 -29 -1 -41 5 -115 14
-164 15 -88 92 -309 143 -413 30 -62 93 -130 172 -183 78 -53 145 -130 171
-198 34 -87 38 -232 9 -345 l-22 -86 57 -108 c87 -165 161 -269 260 -368 50
-49 103 -100 118 -112 22 -17 27 -30 27 -65 0 -91 35 -153 81 -141 10 3 32 21
49 40 16 18 30 28 30 21 0 -6 -9 -95 -21 -197 -23 -198 -23 -470 -1 -521 10
-23 11 -21 11 20 1 70 39 382 61 510 24 131 79 350 111 434 11 32 19 60 16 63
-12 11 -49 -21 -87 -77 -64 -94 -118 -117 -104 -45 7 37 -11 423 -27 560 -5
50 -28 239 -50 420 l-41 330 -511 818 c-381 611 -528 839 -582 901 -312 356
-803 653 -1331 805 -211 61 -295 71 -614 71 -248 0 -279 -2 -317 -19z"/>
<path d="M4375 8428 c-3 -7 -279 -1028 -613 -2268 l-608 -2255 524 -3 c289 -1
527 -1 529 1 3 4 203 968 203 981 0 3 261 6 579 6 l580 0 10 -52 c78 -384 192
-932 194 -935 2 -2 244 -2 539 -1 l534 3 -602 2245 c-332 1235 -606 2255 -609
2268 l-5 22 -626 0 c-490 0 -626 -3 -629 -12z m824 -1761 c113 -545 207 -1000
209 -1009 4 -17 -21 -18 -418 -18 -397 0 -422 1 -418 18 3 9 96 464 209 1009
112 546 206 993 209 993 3 0 97 -447 209 -993z"/>
</g>
</svg>
